# xmcd
#
# Track frame offsets:
#	150
#	14216
#	28059
#	44049
#	57716
#	70407
#	82624
#	94597
#	107588
#	122411
#	138233
#	150603
#	165389
#	179761
#	199266
#	212691
#	228613
#	239179
#	252174
#	263396
#
# Disc length: 3721
#
# Revision: 3
# Processed by: cddbd v1.5.1PL0 Copyright (c) Steve Scherf et al.
# Submitted via: CDex 1.51
# Normalized: r2:DSETVAR2,TDELIM( - )
#
DISCID=1e0e8714
DTITLE=Various Artist - Best of BD Jazz
DYEAR=1900
DGENRE=Jazz
TTITLE0=Anita O'Day - Let me off uptown
TTITLE1=Ella Fitzgerald - Preview
TTITLE2=Billie Holiday - I'll be seeing you
TTITLE3=Errol Garner - Summertime
TTITLE4=Sidney Bechet - Blues in the air
TTITLE5=Art Tatum - Cocktail for two
TTITLE6=Count Basie - Tickle Toe
TTITLE7=Duke Ellington - Caravan
TTITLE8=Django Reinhardt - Minor Swing
TTITLE9=Glenn Miller - Tuxedo Junction
TTITLE10=Dizzy Gillespie - Tin Tin Deo
TTITLE11=Charlie Parker - Bird Of Paradise
TTITLE12=Lester Young - These Foolish Things
TTITLE13=Bud Powell - A Night In Tunisia
TTITLE14=Stan Getz - Time On My Hands
TTITLE15=Oscar Peterson - The Man I Love
TTITLE16=Louis Armstrong - Who Walks In When I Walk Out
TTITLE17=Nat King Cole - Besame Mucho
TTITLE18=Frank Sinatra - When You're Smiling
TTITLE19=Ray Charles - Hallelujah I Love Her So
EXTD=
EXTT0=
EXTT1=
EXTT2=
EXTT3=
EXTT4=
EXTT5=
EXTT6=
EXTT7=
EXTT8=
EXTT9=
EXTT10=
EXTT11=
EXTT12=
EXTT13=
EXTT14=
EXTT15=
EXTT16=
EXTT17=
EXTT18=
EXTT19=
PLAYORDER=
